<?xml version="1.0" encoding="UTF-8" standalone="no"?>
<svg width="620px" height="620px" viewBox="0 0 620 620" version="1.1" xmlns="http://www.w3.org/2000/svg" xmlns:xlink="http://www.w3.org/1999/xlink">
    <!-- Generator: Sketch 50.2 (55047) - http://www.bohemiancoding.com/sketch -->
    <title>Tree Medallion Copy 4</title>
    <desc>Created with Sketch.</desc>
    <defs></defs>
    <g id="Page-1" stroke="none" stroke-width="1" fill="none" fill-rule="evenodd">
        <g id="Bridge-Foundry-Logo-Hidelity-Iterations" transform="translate(-5651.000000, -10789.000000)">
            <g id="Tree-Medallion-Copy-4" transform="translate(5661.000000, 10799.000000)">
                <g id="Group-9" transform="translate(39.000000, 27.000000)">
                    <g id="Leaves" fill="#208A03">
                        <path d="M407.905647,308.204738 C416.796145,313.096964 432.093047,315.543078 453.796353,315.543078 C457.122082,315.543078 464.923233,316.981205 470.550102,320.177818 C475.64907,323.074531 486.821166,333.526637 493.131243,345.475777 C495.375742,349.726095 497.744594,361.439341 497.744594,364.980311 C497.744594,372.576136 499.525186,377.339619 503.08637,379.270761 C481.395525,381.201903 463.589607,378.627047 449.668617,371.546193 C439.514477,366.381332 423.930973,351.655432 416.889542,333.695812 C413.836189,325.908041 410.841557,317.411016 407.905647,308.204738 Z" id="Path-5" transform="translate(455.496008, 344.048112) scale(-1, 1) rotate(-42.000000) translate(-455.496008, -344.048112) "></path>
                        <path d="M11.0073981,298.283747 C23.4328951,310.412392 39.5439279,317.804753 59.3404966,320.46083 C88.1034811,324.319918 96.8338845,328.92173 112.196362,353.505559 C117.168745,361.462623 124.220219,367.384344 133.350783,371.270721 C92.2624901,382.160597 64.7578485,384.065109 50.8368584,376.984255 C40.6827182,371.819394 30.8835404,366.913599 20.52906,342.985154 C17.1868781,335.261617 14.0129908,320.361148 11.0073981,298.283747 Z" id="Path-5-Copy-3" transform="translate(72.179091, 339.726507) rotate(-19.000000) translate(-72.179091, -339.726507) "></path>
                        <path d="M326.622032,110.381214 C343.306897,103.303953 356.818625,99.7653219 367.157217,99.7653219 C378.420178,99.7653219 401.419417,99.2947269 422.749458,114.285304 C445.169253,130.041752 462.065861,150.12105 473.43928,174.523196 C447.837582,173.862157 430.612147,173.62954 421.762974,173.825346 C406.255356,174.168482 396.486071,170.527452 385.269553,168.750792 C373.634159,166.907784 340.866561,143.976962 334.712118,124.329983 C332.043388,115.810527 329.346692,111.160938 326.622032,110.381214 Z" id="Path-5-Copy-4" transform="translate(400.030656, 137.143438) scale(-1, 1) rotate(-152.000000) translate(-400.030656, -137.143438) "></path>
                        <path d="M77.3682878,241.113098 C87.1188254,239.617147 95.6624477,238.26397 102.999155,237.053567 C114.004215,235.237962 129.261368,232.821467 143.503374,239.330312 C146.896179,240.880883 156.146492,246.930768 164.413915,257.072484 C171.817354,266.154344 178.338738,279.219834 180.694154,283.792873 C182.865212,288.007979 188.877495,295.381283 198.731002,305.912784 C179.123809,304.432332 164.047165,303.279164 153.50107,302.453279 C144.827433,301.774031 135.332837,300.293384 121.022497,290.989228 C108.195285,282.649358 101.981079,276.10998 97.1110749,267.732206 C92.430784,259.680792 85.849855,250.807756 77.3682878,241.113098 Z" id="Path-5-Copy-5" transform="translate(138.049645, 270.491418) scale(-1, -1) rotate(9.000000) translate(-138.049645, -270.491418) "></path>
                        <path d="M37.325202,112.057664 C48.334899,113.544015 58.6266016,112.848766 68.2003099,109.971915 C79.5260749,106.56858 94.6417266,105.523182 114.362179,110.858956 C121.939108,112.909051 134.884204,120.703718 144.670216,130.026758 C154.456229,139.349798 163.032003,153.775764 164.381647,155.703256 C167.622477,160.331641 172.562309,164.682788 179.201143,168.756699 C162.168798,175.750328 144.815403,179.247143 127.140959,179.247143 C118.712175,179.247143 96.7517944,175.564173 86.0014554,168.787149 C75.1848187,161.968331 63.4149449,149.317678 57.9877499,141.56684 C52.1698831,133.258066 45.2823672,123.421673 37.325202,112.057664 Z" id="Path-5-Copy-6" transform="translate(108.263172, 143.192572) rotate(35.000000) translate(-108.263172, -143.192572) "></path>
                        <path d="M369.938593,407.967132 C389.492697,396.722641 405.480869,392.205083 417.903109,394.414456 C426.232752,395.895936 434.146097,405.376373 437.895152,412.349371 C441.388907,418.847529 443.653378,424.500926 444.688565,429.309563 C441.324208,430.396878 438.356586,432.023028 435.785699,434.188013 C425.180444,443.118868 413.442324,443.060329 408.004137,440.811302 C400.979508,437.906182 391.742015,430.950889 387.618047,426.035276 C384.621562,422.463579 378.728411,416.440865 369.938593,407.967132 Z" id="Path-5-Copy-2" transform="translate(407.313579, 417.974384) scale(-1, -1) rotate(-8.000000) translate(-407.313579, -417.974384) "></path>
                        <path d="M325.639509,239.887235 C341.379184,227.081286 354.272255,221.57146 364.31872,223.357759 C371.055304,224.555549 376.770665,223.424196 387.07953,230.883509 C391.275368,233.919543 397.135703,239.228735 404.660535,246.811084 C391.284184,252.518998 384.596008,255.372955 384.596008,255.372955 C371.036916,259.084779 355.043657,258.671869 351.029062,255.62992 C347.782289,253.169767 340.182654,246.985277 334.162516,243.377453 C331.902504,242.023045 329.061502,240.859639 325.639509,239.887235 Z" id="Path-5-Copy-18" transform="translate(365.150022, 240.532098) scale(-1, 1) rotate(27.000000) translate(-365.150022, -240.532098) "></path>
                        <path d="M96.089244,464.833236 C107.135013,442.915392 116.756076,430.62489 124.952434,427.961732 C142.589745,422.231022 150.351368,427.497345 160.897708,434.060996 C163.99953,435.991455 168.358472,440.681518 173.974536,448.131183 C168.845884,449.797583 163.260143,453.871441 157.217314,460.352756 C148.773772,469.408987 131.184298,468.811396 119.300805,465.895755 C115.227276,464.896306 107.490088,464.542133 96.089244,464.833236 Z" id="Path-5-Copy-12" transform="translate(135.031890, 446.662793) scale(1, -1) rotate(15.000000) translate(-135.031890, -446.662793) "></path>
                        <path d="M266.086969,198.300127 C278.526463,194.952877 286.428816,192.553787 289.794029,191.102857 C294.841848,188.926462 304.415533,187.270276 309.350404,188.131486 C316.065195,189.30332 325.7756,192.33337 329.901833,197.101918 C334.172693,202.037607 337.906474,205.778765 341.103175,208.325393 C326.753019,215.437077 317.429941,218.746148 313.133944,218.252606 C306.689947,217.512293 302.386056,219.070677 294.553529,214.717761 C282.904488,208.243822 286.254721,210.231915 279.975844,206.162875 C275.789926,203.450181 271.160301,200.829265 266.086969,198.300127 Z" id="Path-5-Copy-14" transform="translate(303.595072, 203.099995) scale(1, -1) rotate(244.000000) translate(-303.595072, -203.099995) "></path>
                        <path d="M161.738758,184.798586 C170.871175,182.033961 178.411106,179.670035 184.358553,177.70681 C185.590847,177.300035 196.524973,173.737151 203.410883,173.241959 C208.017218,172.9107 211.990744,172.467716 215.596453,172.74311 C221.515957,173.195226 226.352429,174.863376 230.691511,176.811586 C239.469267,180.752721 241.700321,183.723182 245.742817,188.176159 C248.461838,191.171274 250.889733,196.242574 252.269962,200.143019 C253.190116,202.743315 254.215575,204.473592 255.346341,205.333848 C249.395949,207.618063 245.240297,209.22745 242.879383,210.162012 C238.826577,211.766304 227.240097,214.622653 226.221924,214.711731 C219.232494,215.323227 208.801988,215.213155 197.724729,208.936307 C185.330092,201.912977 185.099879,199.281624 177.526576,193.384624 C172.477707,189.45329 167.215101,186.591278 161.738758,184.798586 Z" id="Path-5-Copy-27" transform="translate(208.542549, 193.804873) scale(1, -1) rotate(-85.000000) translate(-208.542549, -193.804873) "></path>
                        <path d="M5.3787479,247.663243 C14.5857698,249.027284 21.1425697,248.846593 25.0491477,247.121169 C30.9090147,244.533032 41.6447747,243.155946 47.7515779,243.587659 C55.9579703,244.167801 64.2151748,247.126605 70.4842201,253.137449 C76.3957043,258.805459 80.6263309,262.516899 83.1761,264.271769 C67.8655294,273.128377 56.9949403,277.540496 50.5643327,277.508127 C40.9184212,277.459572 30.3951572,272.690192 22.1048225,264.204362 C19.2738903,261.306674 13.6985321,255.792967 5.3787479,247.663243 Z" id="Path-5-Copy-28" transform="translate(44.277424, 260.508818) rotate(26.000000) translate(-44.277424, -260.508818) "></path>
                        <path d="M413.900835,209.186018 C445.067321,205.883992 467.358816,210.404573 480.775319,222.747762 C498.331314,238.899285 506.185313,260.461231 504.337313,287.433601 C499.486314,285.250962 491.632316,283.177456 480.775319,281.213082 C464.958481,278.351315 454.533254,269.859936 445.085827,262.87892 C439.396175,258.674648 428.300162,236.827099 427.414332,233.740699 C423.718333,220.863133 419.213834,212.67824 413.900835,209.186018 Z" id="Path-6-Copy-6" transform="translate(459.251074, 247.787124) rotate(469.000000) translate(-459.251074, -247.787124) "></path>
                        <path d="M195.215011,41.4277031 C209.930884,41.9442486 222.543491,42.2266046 233.052831,42.2747711 C248.816843,42.3470209 263.230732,45.4248553 270.884111,49.4659121 C278.537491,53.5069689 296.118288,64.9717034 304.821503,82.1514644 C307.851798,88.1331332 317.180119,103.493829 324.401592,113.644245 C329.215908,120.411189 336.020993,128.456916 344.816846,137.781427 C332.204967,134.770627 320.756196,132.668547 310.470534,131.475187 C303.086766,130.618509 274.246902,127.29149 266.779686,125.812372 C249.853546,122.459615 239.127783,117.019358 228.587139,104.332638 C217.647043,91.165138 210.624223,73.8111343 209.676267,70.1952039 C205.721051,55.1082479 200.900633,45.519081 195.215011,41.4277031 Z" id="Path-6-Copy-5" transform="translate(270.015928, 89.604565) scale(1, -1) rotate(55.000000) translate(-270.015928, -89.604565) "></path>
                    </g>
                    <g id="Tree" transform="translate(155.000000, 271.000000)" stroke="#000000" stroke-width="20">
                        <path d="M136.679932,262.036145 L88,271.056164" id="Path-3-Copy-13"></path>
                        <path d="M136.679932,221.036145 L88,230.056164" id="Path-3-Copy-14"></path>
                        <path d="M136.679932,181.036145 L88,190.056164" id="Path-3-Copy-15"></path>
                        <g id="Group-5">
                            <path d="M47.9277108,131.224474 L80.2522998,164.562028 C81.1568156,165.494888 81.6626506,166.743229 81.6626506,168.042605 L81.6626506,292.787013" id="Path-Copy"></path>
                            <ellipse id="Oval-Copy" transform="translate(27.879518, 111.697033) rotate(45.000000) translate(-27.879518, -111.697033) " cx="27.8795181" cy="111.697033" rx="19.8795181" ry="19.2680662"></ellipse>
                            <path d="M144.795181,293.349949 L144.795181,132.721524 C144.795181,130.645636 146.077873,128.785672 148.018244,128.047928 L190.572117,111.868622 C192.512489,111.130878 193.795181,109.270914 193.795181,107.195027 L193.795181,59.7316427" id="Path-2-Copy"></path>
                            <ellipse id="Oval-Copy-3" cx="193.542169" cy="43.9668613" rx="19.8795181" ry="19.2680662"></ellipse>
                            <path d="M112.511912,124.698795 L112.511912,39.7590361" id="Path-4-Copy"></path>
                            <circle id="Oval-Copy-4" cx="112.879518" cy="19.8795181" r="19.8795181"></circle>
                        </g>
                    </g>
                </g>
                <circle id="Oval-5-Copy-2" stroke="#000000" stroke-width="20" cx="300" cy="300" r="300"></circle>
            </g>
        </g>
    </g>
</svg>